<svg xmlns="http://www.w3.org/2000/svg" viewBox="0 0 512 512">
  <defs>
    <linearGradient id="bg" x1="0%" y1="0%" x2="100%" y2="100%">
      <stop offset="0%" style="stop-color:#1a1a1a;stop-opacity:1"/>
      <stop offset="100%" style="stop-color:#0d0d0d;stop-opacity:1"/>
    </linearGradient>
  </defs>
  
  <!-- Background rounded square -->
  <rect width="512" height="512" rx="110" fill="url(#bg)"/>
  
  <!-- Chat bubble outline -->
  <path d="M 120 155 Q 120 115 165 115 L 365 115 Q 410 115 410 155 L 410 295 Q 410 335 365 335 L 240 335 L 175 395 L 175 335 L 165 335 Q 120 335 120 295 Z" 
        fill="none" stroke="white" stroke-width="28" stroke-linejoin="round"/>
  
  <!-- Chat bubble inner fill -->
  <path d="M 145 165 Q 145 140 170 140 L 360 140 Q 385 140 385 165 L 385 285 Q 385 310 360 310 L 235 310 L 185 355 L 185 310 L 170 310 Q 145 310 145 285 Z" 
        fill="#1a1a1a"/>
  
  <!-- Network nodes -->
  <circle cx="210" cy="200" r="16" fill="white"/>
  <circle cx="295" cy="185" r="14" fill="white"/>
  <circle cx="350" cy="235" r="12" fill="white"/>
  <circle cx="270" cy="265" r="17" fill="white"/>
  <circle cx="190" cy="255" r="12" fill="white"/>
  
  <!-- Connection lines -->
  <line x1="210" y1="200" x2="295" y2="185" stroke="white" stroke-width="4" opacity="0.7"/>
  <line x1="295" y1="185" x2="350" y2="235" stroke="white" stroke-width="4" opacity="0.7"/>
  <line x1="270" y1="265" x2="350" y2="235" stroke="white" stroke-width="4" opacity="0.7"/>
  <line x1="210" y1="200" x2="270" y2="265" stroke="white" stroke-width="4" opacity="0.7"/>
  <line x1="190" y1="255" x2="270" y2="265" stroke="white" stroke-width="4" opacity="0.7"/>
  <line x1="190" y1="255" x2="210" y2="200" stroke="white" stroke-width="4" opacity="0.7"/>
  
  <!-- AI sparkle star -->
  <path d="M 365 145 L 371 160 L 386 163 L 374 173 L 377 188 L 365 180 L 353 188 L 356 173 L 344 163 L 359 160 Z" 
        fill="white" opacity="0.95"/>
  
  <!-- Video camera body -->
  <rect x="330" y="310" width="65" height="48" rx="10" fill="white"/>
  <!-- Camera lens -->
  <path d="M 395 320 L 430 305 L 430 370 L 395 355 Z" fill="white"/>
</svg>
